<?xml version="1.0" encoding="UTF-8" standalone="no"?>
<svg width="96" height="96" viewBox="0 0 96 96" version="1.1" xmlns="http://www.w3.org/2000/svg">
    <path fill="#FFF" d="M 14.58935,50.12192 34.270906,30.44018 c 1.966014,-1.96601 1.966014,-5.15367 0,-7.11987 -1.966013,-1.96619 -5.153668,-1.96601 -7.119865,0 L 3.9792111,46.49233 C 2.9779886,47.49337 2.487904,48.8113 2.5063943,50.1232 2.4886363,51.43436 2.978904,52.75102 3.9792111,53.75151 L 27.151041,76.92316 c 1.96583,1.96601 5.153669,1.96601 7.119865,0 1.966197,-1.96602 1.966014,-5.15367 0,-7.11987 z"/>
    <path fill="#FFF" d="M 90.504682,45.45486 67.332669,22.28303 c -1.966013,-1.96602 -5.153669,-1.9662 -7.119865,0 -1.966014,1.96601 -1.966014,5.15385 0,7.11986 L 79.894726,49.08445 60.212987,68.76619 c -1.966014,1.96583 -1.966014,5.15348 0,7.11986 1.966013,1.96583 5.153852,1.96583 7.119865,0 l 23.17183,-23.17183 c 1.000857,-1.00085 1.490941,-2.31806 1.472817,-3.62959 0.01794,-1.31171 -0.472144,-2.6291 -1.472817,-3.62977 z"/>
    <path fill="#FFF" d="m 47.946043,78.39286 c -0.491916,2.99324 -3.317088,5.02094 -6.310137,4.52903 v 0 c -2.993049,-0.49192 -5.020758,-3.31691 -4.528843,-6.31014 l 9.339434,-56.8359 c 0.491916,-2.99305 3.316905,-5.02076 6.310137,-4.52902 v 0 c 2.993049,0.49191 5.020759,3.31708 4.528843,6.31013 z"/>
</svg>
